<svg height="512" viewBox="0 0 128 128" width="512" xmlns="http://www.w3.org/2000/svg"><g id="Circle_Grid" data-name="Circle Grid"><circle cx="64" cy="64" fill="#f6c863" r="64"/></g><g id="icon"><path d="m37.683 27.953h52.444v75.781h-52.444z" fill="#eeefee"/><path d="m42.375 23-2.485 4.953h48.029l-2.485-4.953z" fill="#dbd8dd"/><path d="m74.389 33.04h11.31v10.964h-11.31z" fill="#69b0ee"/><g fill="#eeefee" opacity=".5"><path d="m83.057 33.04-8.668 8.685v-1.174l7.511-7.511z"/><path d="m85.698 33.04v.863l-10.101 10.101h-1.208v-1.019l9.945-9.945z"/></g><path d="m58.251 33.04h11.31v10.964h-11.31z" fill="#69b0ee"/><g fill="#eeefee" opacity=".5"><path d="m66.919 33.04-8.668 8.685v-1.174l7.511-7.511z"/><path d="m69.561 33.04v.863l-10.101 10.101h-1.209v-1.019l9.946-9.945z"/></g><path d="m42.114 33.04h11.31v10.964h-11.31z" fill="#69b0ee"/><g fill="#eeefee" opacity=".5"><path d="m50.782 33.04-8.668 8.685v-1.174l7.511-7.511z"/><path d="m53.423 33.04v.863l-10.1 10.101h-1.209v-1.019l9.945-9.945z"/></g><path d="m74.389 48.94h11.31v10.964h-11.31z" fill="#69b0ee"/><g fill="#eeefee" opacity=".5"><path d="m83.057 48.94-8.668 8.685v-1.174l7.511-7.511z"/><path d="m85.698 48.94v.863l-10.101 10.101h-1.208v-1.018l9.945-9.946z"/></g><path d="m58.251 48.94h11.31v10.964h-11.31z" fill="#69b0ee"/><g fill="#eeefee" opacity=".5"><path d="m66.919 48.94-8.668 8.685v-1.174l7.511-7.511z"/><path d="m69.561 48.94v.863l-10.101 10.101h-1.209v-1.018l9.946-9.946z"/></g><path d="m42.114 48.94h11.31v10.964h-11.31z" fill="#69b0ee"/><g fill="#eeefee" opacity=".5"><path d="m50.782 48.94-8.668 8.685v-1.174l7.511-7.511z"/><path d="m53.423 48.94v.863l-10.1 10.101h-1.209v-1.018l9.945-9.946z"/></g><path d="m74.389 65.844h11.31v10.964h-11.31z" fill="#69b0ee"/><g fill="#eeefee" opacity=".5"><path d="m83.057 65.844-8.668 8.685v-1.174l7.511-7.511z"/><path d="m85.698 65.844v.863l-10.101 10.101h-1.208v-1.018l9.945-9.946z"/></g><path d="m58.251 65.844h11.31v10.964h-11.31z" fill="#69b0ee"/><g fill="#eeefee" opacity=".5"><path d="m66.919 65.844-8.668 8.685v-1.174l7.511-7.511z"/><path d="m69.561 65.844v.863l-10.101 10.101h-1.209v-1.018l9.946-9.946z"/></g><path d="m42.114 65.844h11.31v10.964h-11.31z" fill="#69b0ee"/><g fill="#eeefee" opacity=".5"><path d="m50.782 65.844-8.668 8.685v-1.174l7.511-7.511z"/><path d="m53.423 65.844v.863l-10.1 10.101h-1.209v-1.018l9.945-9.946z"/></g><path d="m49.834 84.404h28.141v18.498h-28.141z" fill="#575b6d"/><path d="m33.729 100.804h60.543v4.196h-60.543z" fill="#62667c"/><path d="m62.097 83.914h3.614v16.89h-3.614z" fill="#eeefee"/></g></svg>