<svg id="Capa_1" enable-background="new 0 0 512 512" height="512" viewBox="0 0 512 512" width="512" xmlns="http://www.w3.org/2000/svg"><g><g><g><circle cx="256" cy="267" fill="#172a7d" r="245"/></g></g><path d="m170.098 47.685c-11.449 4.101-16.312 8.964-20.413 20.413-.908 2.536-4.461 2.536-5.369 0-4.101-11.449-8.964-16.312-20.413-20.413-2.536-.908-2.536-4.461 0-5.369 11.449-4.101 16.312-8.964 20.413-20.413.908-2.536 4.461-2.536 5.369 0 4.101 11.449 8.964 16.312 20.413 20.413 2.536.908 2.536 4.46 0 5.369z" fill="#fed402"/><g><path d="m134.902 37.685c-.314-.112-.588-.266-.824-.449-2.706 1.982-5.999 3.583-10.176 5.08-2.536.908-2.536 4.461 0 5.369 11.449 4.101 16.312 8.964 20.413 20.413.908 2.536 4.461 2.536 5.369 0 1.576-4.401 3.27-7.822 5.402-10.608-4.054-11.003-8.945-15.78-20.184-19.805z" fill="#fac600"/></g><path d="m135.098 405.685c-11.449 4.101-16.312 8.964-20.413 20.413-.908 2.536-4.461 2.536-5.369 0-4.101-11.449-8.964-16.312-20.413-20.413-2.536-.908-2.536-4.461 0-5.369 11.449-4.101 16.312-8.964 20.413-20.413.908-2.536 4.461-2.536 5.369 0 4.101 11.449 8.964 16.312 20.413 20.413 2.536.908 2.536 4.46 0 5.369z" fill="#fed402"/><g><path d="m120.315 415.098c-4.101-11.449-8.964-16.312-20.413-20.413-.025-.009-.045-.022-.07-.031-2.844 2.254-6.355 4.023-10.93 5.662-2.536.908-2.536 4.461 0 5.369 11.449 4.101 16.312 8.964 20.413 20.413.908 2.536 4.461 2.536 5.369 0 1.639-4.575 3.408-8.087 5.662-10.93-.009-.025-.022-.045-.031-.07z" fill="#fac600"/></g><path d="m108.836 140.476c-8.054 2.885-11.475 6.306-14.36 14.36-.639 1.784-3.138 1.784-3.777 0-2.885-8.054-6.306-11.475-14.36-14.36-1.784-.639-1.784-3.138 0-3.777 8.054-2.885 11.475-6.306 14.36-14.36.639-1.784 3.138-1.784 3.777 0 2.885 8.054 6.306 11.475 14.36 14.36 1.784.638 1.784 3.137 0 3.777z" fill="#fff"/><g><path d="m83.664 133.802c-.243-.087-.446-.213-.622-.359-1.817 1.248-3.994 2.285-6.704 3.256-1.784.639-1.784 3.138 0 3.777 8.054 2.885 11.475 6.306 14.36 14.36.639 1.784 3.138 1.784 3.777 0 1.018-2.842 2.108-5.098 3.439-6.966-2.862-7.839-6.297-11.22-14.25-14.068z" fill="#f3f0f3"/></g><path d="m408.836 420.476c-8.054 2.885-11.475 6.306-14.36 14.36-.639 1.784-3.138 1.784-3.777 0-2.885-8.054-6.306-11.475-14.36-14.36-1.784-.639-1.784-3.138 0-3.777 8.054-2.885 11.475-6.306 14.36-14.36.639-1.784 3.138-1.784 3.777 0 2.885 8.054 6.306 11.475 14.36 14.36 1.784.638 1.784 3.137 0 3.777z" fill="#fff"/><g><g><path d="m397.785 427.749c-2.885-8.054-6.306-11.475-14.36-14.36-.065-.023-.111-.066-.172-.094-1.858 1.315-4.099 2.395-6.915 3.403-1.784.639-1.784 3.138 0 3.777 8.054 2.885 11.475 6.306 14.36 14.36.639 1.784 3.138 1.784 3.777 0 1.009-2.816 2.088-5.057 3.403-6.915-.027-.06-.069-.106-.093-.171z" fill="#f3f0f3"/></g></g><path d="m265.662 73.476c-8.054 2.885-11.475 6.306-14.36 14.36-.639 1.784-3.138 1.784-3.777 0-2.885-8.054-6.306-11.475-14.36-14.36-1.784-.639-1.784-3.138 0-3.777 8.054-2.885 11.475-6.306 14.36-14.36.639-1.784 3.138-1.784 3.777 0 2.885 8.054 6.306 11.475 14.36 14.36 1.784.638 1.784 3.137 0 3.777z" fill="#fff"/><g><path d="m255.024 80.336c-2.885-8.054-6.306-11.475-14.36-14.36-.031-.011-.051-.032-.08-.044-1.952 1.484-4.347 2.666-7.42 3.766-1.784.639-1.784 3.138 0 3.777 8.054 2.885 11.475 6.306 14.36 14.36.639 1.784 3.138 1.784 3.777 0 1.101-3.073 2.282-5.468 3.766-7.42-.011-.029-.032-.049-.043-.079z" fill="#f3f0f3"/></g><g fill="#fed402"><path d="m458.607 185.449-6.157 6.157c-.524.524-1.375.524-1.899 0l-6.157-6.157c-.524-.524-.524-1.375 0-1.899l6.157-6.157c.524-.524 1.375-.524 1.899 0l6.157 6.157c.524.525.524 1.375 0 1.899z"/><path d="m454.607 332.449-6.157 6.157c-.524.524-1.375.524-1.899 0l-6.157-6.157c-.524-.524-.524-1.375 0-1.899l6.157-6.157c.524-.524 1.375-.524 1.899 0l6.157 6.157c.524.525.524 1.375 0 1.899z"/><path d="m63.607 267.449-6.157 6.157c-.524.524-1.375.524-1.899 0l-6.157-6.157c-.524-.524-.524-1.375 0-1.899l6.157-6.157c.524-.524 1.375-.524 1.899 0l6.157 6.157c.524.525.524 1.375 0 1.899z"/><path d="m340.607 459.449-6.157 6.157c-.524.524-1.375.524-1.899 0l-6.157-6.157c-.524-.524-.524-1.375 0-1.899l6.157-6.157c.524-.524 1.375-.524 1.899 0l6.157 6.157c.524.525.524 1.375 0 1.899z"/><path d="m361.285 103.877c-1.007-.008-1.836-.794-1.897-1.8-2.647-43.464-4.436-45.282-47.851-48.633-1.004-.077-1.777-.919-1.769-1.926s.794-1.836 1.8-1.897c43.464-2.647 45.282-4.436 48.633-47.851.077-1.004.919-1.777 1.926-1.769s1.836.794 1.897 1.8c2.647 43.464 4.436 45.282 47.851 48.633 1.004.077 1.777.919 1.769 1.926s-.794 1.836-1.8 1.897c-43.464 2.647-45.282 4.436-48.633 47.851-.077 1.004-.919 1.777-1.926 1.769z"/></g><g><path d="m344.888 44.881c-6.866 2.895-17.241 3.759-33.32 4.739-1.006.061-1.792.89-1.8 1.897s.765 1.849 1.769 1.927c43.415 3.351 45.204 5.169 47.851 48.633.061 1.006.891 1.792 1.897 1.8 1.007.008 1.849-.765 1.926-1.769 1.167-15.116 2.15-25.182 4.767-31.999-2.299-16.926-7.144-22.442-23.09-25.228z" fill="#fac600"/></g><g><circle cx="256" cy="267" fill="#fd4755" r="159"/><g fill="#fb2b3a"><path d="m126.092 358.693c1.669-.048 3.39.137 5.133.604l25.409 6.809c10.933 2.929 21.75-5.07 22.151-16.381.011-.314.052-.619.079-.928-18.551-22.234-31.14-49.61-35.325-79.678l-10.797.027c-10.627.026-18.808 9.39-17.408 19.925l3.4 25.58c.949 7.14-2.478 13.627-7.965 17.151v-.001c4.241 9.492 9.384 18.493 15.323 26.892z"/><path d="m216.528 381.717 9.356 34.916c.44 1.642 2.114 4.178 4.724 7.34 8.269 1.327 16.748 2.027 25.392 2.027 31.798 0 61.412-9.34 86.26-25.418-13.16 3.527-26.988 5.418-41.26 5.418-31.04 0-59.997-8.904-84.472-24.283z"/></g><path d="m256 108c-87.813 0-159 71.187-159 159 0 23.081 4.924 45.009 13.769 64.802 5.487-3.525 8.914-10.011 7.965-17.151l-3.4-25.58c-1.4-10.534 6.781-19.898 17.408-19.925l14.069-.035c9.463-.024 17.215-7.524 17.551-16.981l.229-6.462c.401-11.311 11.218-19.311 22.151-16.381l30.325 8.125c13.091 3.508 25.07-8.471 21.563-21.562l-8.952-33.407c-2.991-11.164 5.404-22.133 16.962-22.162l9.025-.022c9.463-.024 17.215-7.524 17.551-16.981.401-11.311 11.218-19.311 22.151-16.381l25.409 6.809c6.056 1.623 11.871-.073 16.028-3.656-23.681-14.005-51.301-22.05-80.804-22.05z" fill="#fe646f"/><path d="m118.734 314.65-3.4-25.58c-1.4-10.534 6.781-19.898 17.408-19.925l10.797-.027c-1.007-7.23-1.539-14.611-1.539-22.118 0-56.015 28.97-105.259 72.74-133.582-.917.246-1.844.503-2.774.764-66.393 19.097-114.966 80.283-114.966 152.818 0 23.081 4.924 45.009 13.769 64.802 5.486-3.525 8.913-10.012 7.965-17.152z" fill="#fd4755"/><path d="m230.607 423.973c-2.609-3.161-4.284-5.698-4.724-7.34l-12.265-45.773c-3.508-13.091 8.471-25.07 21.562-21.563l25.409 6.809c10.933 2.929 21.75-5.07 22.151-16.381.336-9.458 8.087-16.958 17.551-16.981l9.025-.022c11.558-.029 19.953-10.998 16.962-22.162l-8.952-33.407c-3.508-13.091 8.471-25.07 21.562-21.562l30.325 8.125c10.933 2.929 21.75-5.07 22.151-16.381l.229-6.462c.297-8.386 6.43-15.221 14.412-16.681.006.017.015.034.021.051-6.906-19.633-17.556-37.503-31.094-52.753l-21.896-2.91c-11.493-1.527-21.299 8.278-19.771 19.771l3.4 25.58c1.4 10.534-6.781 19.898-17.408 19.925l-14.069.035c-9.463.024-17.215 7.524-17.551 16.981l-.229 6.462c-.401 11.311-11.218 19.311-22.151 16.381l-30.325-8.125c-13.091-3.508-25.07 8.471-21.563 21.562l8.952 33.407c2.991 11.164-5.404 22.133-16.962 22.162l-9.025.022c-9.463.024-17.215 7.524-17.551 16.981-.401 11.311-11.218 19.311-22.151 16.381l-25.409-6.809c-1.742-.467-3.463-.652-5.133-.604 24.156 34.162 61.449 58.368 104.522 65.281 0 .001-.003 0-.005 0z" fill="#e41f2d"/><circle cx="172.5" cy="296.5" fill="#e41f2d" r="15.5"/><circle cx="292.18" cy="186.18" fill="#fe646f" r="20.82"/><circle cx="354.5" cy="284.5" fill="#fe646f" r="15.5"/><circle cx="311.18" cy="369.18" fill="#e41f2d" r="16.18"/><circle cx="183.5" cy="179.5" fill="#fd4755" r="15.5"/><circle cx="145.5" cy="226.5" fill="#e41f2d" r="10.5"/><path d="m178.864 348.796c-.027.309-.068.614-.079.928-.401 11.311-11.218 19.311-22.151 16.381l-25.409-6.809c-1.742-.467-3.463-.652-5.133-.604 24.156 34.162 61.449 58.368 104.522 65.281-.002 0-.005-.001-.007-.002-2.609-3.161-4.284-5.698-4.724-7.34l-9.356-34.916c-14.228-8.939-26.941-20.068-37.663-32.919z" fill="#c41926"/></g></g></svg>